<svg width="73" height="73" viewBox="0 0 73 73" fill="none" xmlns="http://www.w3.org/2000/svg">
<path d="M27.3757 66.9163C29.0555 66.9163 30.4173 65.5545 30.4173 63.8747C30.4173 62.1948 29.0555 60.833 27.3757 60.833C25.6958 60.833 24.334 62.1948 24.334 63.8747C24.334 65.5545 25.6958 66.9163 27.3757 66.9163Z" stroke="white" stroke-width="4.86667" stroke-linecap="round" stroke-linejoin="round"/>
<path d="M60.8327 66.9163C62.5125 66.9163 63.8743 65.5545 63.8743 63.8747C63.8743 62.1948 62.5125 60.833 60.8327 60.833C59.1528 60.833 57.791 62.1948 57.791 63.8747C57.791 65.5545 59.1528 66.9163 60.8327 66.9163Z" stroke="white" stroke-width="4.86667" stroke-linecap="round" stroke-linejoin="round"/>
<path d="M3.04102 3.04199H15.2077L23.3593 43.7699C23.6375 45.1703 24.3993 46.4282 25.5115 47.3235C26.6236 48.2188 28.0152 48.6943 29.4427 48.667H59.0077C60.4351 48.6943 61.8267 48.2188 62.9389 47.3235C64.051 46.4282 64.8129 45.1703 65.091 43.7699L69.9577 18.2503H18.2493" stroke="white" stroke-width="4.86667" stroke-linecap="round" stroke-linejoin="round"/>
</svg>
