<svg width="81" height="81" viewBox="0 0 81 81" fill="none" xmlns="http://www.w3.org/2000/svg">
<path d="M40.0781 69.1871C40.3594 69.1871 40.6828 69.1168 41.0484 68.9762C41.4141 68.8355 41.7094 68.6527 41.9344 68.4277L70.3688 39.909C71.1 39.1777 71.6484 38.348 72.0141 37.4199C72.3797 36.4918 72.5625 35.5496 72.5625 34.5934C72.5625 33.6371 72.3797 32.6809 72.0141 31.7246C71.6484 30.7684 71.1 29.9246 70.3688 29.1934L55.1813 14.0059C54.45 13.2746 53.6063 12.7262 52.65 12.3605C51.6938 11.9949 50.7375 11.8121 49.7812 11.8121C48.825 11.8121 47.8828 11.9949 46.9547 12.3605C46.0266 12.7262 45.1969 13.2746 44.4656 14.0059L42.9469 15.5246L49.7812 22.4434C50.5125 23.2309 51.1594 24.1449 51.7219 25.1855C52.2844 26.2262 52.5656 27.3652 52.5656 28.6027C52.5656 30.7402 51.7359 32.6246 50.0766 34.2559C48.4172 35.8871 46.5187 36.7027 44.3812 36.7027C42.975 36.7027 41.8078 36.4918 40.8797 36.0699C39.9516 35.648 39.0938 35.0434 38.3063 34.2559L32.1469 28.0965L16.875 43.3684C16.5938 43.6496 16.3969 43.9449 16.2844 44.2543C16.1719 44.5637 16.1156 44.8871 16.1156 45.2246C16.1156 45.9559 16.3547 46.5605 16.8328 47.0387C17.3109 47.5168 17.9156 47.7559 18.6469 47.7559C18.9844 47.7559 19.3078 47.6715 19.6172 47.5027C19.9266 47.334 20.1938 47.1371 20.4188 46.9121L32.0625 35.2684L35.6063 38.8121L24.0469 50.3715C23.7656 50.6527 23.5687 50.9621 23.4562 51.2996C23.3438 51.6371 23.2875 51.9746 23.2875 52.3121C23.2875 52.9871 23.5406 53.5777 24.0469 54.084C24.5531 54.5902 25.1438 54.8434 25.8188 54.8434C26.1562 54.8434 26.4797 54.773 26.7891 54.6324C27.0984 54.4918 27.3656 54.309 27.5906 54.084L39.2344 42.4402L42.7781 45.984L31.2188 57.5434C30.9937 57.7684 30.8109 58.0637 30.6703 58.4293C30.5297 58.7949 30.4594 59.1465 30.4594 59.484C30.4594 60.159 30.7125 60.7496 31.2188 61.2559C31.725 61.7621 32.3156 62.0152 32.9906 62.0152C33.3281 62.0152 33.6375 61.959 33.9188 61.8465C34.2 61.734 34.4813 61.5371 34.7625 61.2559L46.4062 49.6121L49.95 53.1559L38.3063 64.7996C38.025 65.0809 37.8281 65.3902 37.7156 65.7277C37.6031 66.0652 37.5469 66.3746 37.5469 66.6559C37.5469 67.4434 37.7719 68.0621 38.2219 68.5121C38.6719 68.9621 39.2906 69.1871 40.0781 69.1871ZM40.0781 74.2496C38.2219 74.2496 36.5625 73.5606 35.1 72.1824C33.6375 70.8043 32.7656 69.1027 32.4844 67.0777C30.5719 66.7965 28.9688 66.009 27.675 64.7152C26.3812 63.4215 25.5938 61.8184 25.3125 59.9059C23.4 59.6246 21.8109 58.823 20.5453 57.5012C19.2797 56.1793 18.5063 54.5902 18.225 52.734C16.1438 52.4527 14.4281 51.609 13.0781 50.2027C11.7281 48.7965 11.0531 47.109 11.0531 45.1402C11.0531 44.184 11.2359 43.2277 11.6016 42.2715C11.9672 41.3152 12.5156 40.4715 13.2469 39.7402L32.1469 20.8402L41.4281 30.1215C41.8781 30.5715 42.3703 30.923 42.9047 31.1762C43.4391 31.4293 43.9594 31.5559 44.4656 31.5559C45.1969 31.5559 45.8859 31.2324 46.5328 30.5855C47.1797 29.9387 47.5031 29.2496 47.5031 28.5184C47.5031 28.1809 47.4047 27.8012 47.2078 27.3793C47.0109 26.9574 46.6875 26.5215 46.2375 26.0715L34.1719 14.0059C33.4406 13.2746 32.5969 12.7262 31.6406 12.3605C30.6844 11.9949 29.7281 11.8121 28.7719 11.8121C27.8156 11.8121 26.8734 11.9949 25.9453 12.3605C25.0172 12.7262 24.1875 13.2746 23.4562 14.0059L10.6313 26.8309C9.84375 27.6184 9.29531 28.448 8.98594 29.3199C8.67656 30.1918 8.49375 31.1621 8.4375 32.2309C8.38125 33.3559 8.59219 34.4387 9.07031 35.4793C9.54844 36.5199 10.125 37.4621 10.8 38.3059L7.17188 41.934C6.04688 40.6965 5.13281 39.2059 4.42969 37.4621C3.72656 35.7184 3.375 33.9465 3.375 32.1465C3.375 30.459 3.69844 28.8418 4.34531 27.2949C4.99219 25.748 5.90625 24.384 7.0875 23.2027L19.8281 10.4621C21.0656 9.22461 22.4719 8.31055 24.0469 7.71992C25.6219 7.1293 27.225 6.83398 28.8563 6.83398C30.4875 6.83398 32.0766 7.1293 33.6234 7.71992C35.1703 8.31055 36.5625 9.22461 37.8 10.4621L39.3187 11.9809L40.8375 10.4621C42.075 9.22461 43.4813 8.31055 45.0563 7.71992C46.6313 7.1293 48.2344 6.83398 49.8656 6.83398C51.4969 6.83398 53.0859 7.1293 54.6328 7.71992C56.1797 8.31055 57.5719 9.22461 58.8094 10.4621L73.9125 25.5652C75.15 26.8027 76.0781 28.209 76.6969 29.784C77.3156 31.359 77.625 32.9621 77.625 34.5934C77.625 36.2246 77.3156 37.8137 76.6969 39.3605C76.0781 40.9074 75.15 42.2996 73.9125 43.5371L45.4781 71.9715C44.7469 72.7027 43.9172 73.2652 42.9891 73.659C42.0609 74.0527 41.0906 74.2496 40.0781 74.2496Z" fill="#262626"/>
</svg>
