<svg width="81" height="81" viewBox="0 0 81 81" fill="none" xmlns="http://www.w3.org/2000/svg">
<path d="M35.2481 37.4063H35.1968V28.7995C35.1968 28.1347 34.6587 27.5965 33.9938 27.5965H32.458V16.028C32.458 15.7096 32.3313 15.4032 32.106 15.1771L22.7525 5.81875C22.4084 5.47471 21.8919 5.37045 21.4412 5.55811C20.9913 5.74417 20.6986 6.18285 20.6986 6.66966V27.5965H19.1636C18.4988 27.5965 17.9606 28.1347 17.9606 28.7995V37.4063H17.9061C17.2413 37.4063 16.7031 37.9445 16.7031 38.6093V74.506C16.7031 75.1708 17.2413 75.7089 17.9061 75.7089H35.2489C35.9138 75.7089 36.4519 75.1708 36.4519 74.506V38.6093C36.4511 37.9445 35.913 37.4063 35.2481 37.4063ZM23.1045 9.57523L30.0521 16.526V27.5965H23.1045V9.57523ZM20.3666 30.0025H32.7908V37.4063H20.3666V30.0025ZM34.0451 73.3022H19.1083V39.8115H19.1628H33.993H34.0443V73.3022H34.0451Z" fill="#262626" stroke="#262626" stroke-width="2.2"/>
<path d="M60.442 39.867V31.9065C60.442 31.2417 59.9039 30.7036 59.2391 30.7036H54.6092V21.2915H56.951C57.6159 21.2915 58.154 20.7534 58.154 20.0886C58.154 19.4237 57.6159 18.8856 56.951 18.8856H54.6092V16.073H56.951C57.6159 16.073 58.154 15.5349 58.154 14.8701C58.154 14.2052 57.6159 13.6671 56.951 13.6671H54.6092V10.853H56.951C57.6159 10.853 58.154 10.3148 58.154 9.64999C58.154 8.98515 57.6159 8.44702 56.951 8.44702H54.6092V6.59848C54.6092 5.93364 54.0711 5.39551 53.4063 5.39551C52.7414 5.39551 52.2033 5.93364 52.2033 6.59848V8.44702H49.8615C49.1967 8.44702 48.6586 8.98515 48.6586 9.64999C48.6586 10.3148 49.1967 10.853 49.8615 10.853H52.2033V13.6671H49.8615C49.1967 13.6671 48.6586 14.2052 48.6586 14.8701C48.6586 15.5349 49.1967 16.073 49.8615 16.073H52.2033V18.8856H49.8615C49.1967 18.8856 48.6586 19.4237 48.6586 20.0886C48.6586 20.7534 49.1967 21.2915 49.8615 21.2915H52.2033V30.7036H47.5735C46.9086 30.7036 46.3705 31.2417 46.3705 31.9065V39.867C45.8083 39.968 45.3809 40.4573 45.3809 41.0483V74.5053C45.3809 75.1702 45.919 75.7083 46.5838 75.7083H60.2287C60.8936 75.7083 61.4317 75.1702 61.4317 74.5053V41.0483C61.4317 40.4573 61.0042 39.968 60.442 39.867ZM48.7764 33.1095H58.0361V39.8453H48.7764V33.1095ZM59.0257 73.3024H47.7868V42.2513H59.0257V73.3024Z" fill="#262626" stroke="#262626" stroke-width="2.2"/>
</svg>
