<svg width="93" height="93" viewBox="0 0 93 93" fill="none" xmlns="http://www.w3.org/2000/svg">
<path d="M20.3438 75.5625C25.159 75.5625 29.0625 71.659 29.0625 66.8438C29.0625 62.0285 25.159 58.125 20.3438 58.125C15.5285 58.125 11.625 62.0285 11.625 66.8438C11.625 71.659 15.5285 75.5625 20.3438 75.5625Z" stroke="#262626" stroke-width="5.8125" stroke-miterlimit="10" stroke-linecap="round" stroke-linejoin="round"/>
<path d="M66.8438 75.5625C71.659 75.5625 75.5625 71.659 75.5625 66.8438C75.5625 62.0285 71.659 58.125 66.8438 58.125C62.0285 58.125 58.125 62.0285 58.125 66.8438C58.125 71.659 62.0285 75.5625 66.8438 75.5625Z" stroke="#262626" stroke-width="5.8125" stroke-miterlimit="10" stroke-linecap="round" stroke-linejoin="round"/>
<path d="M81.375 55.2188H87.1875" stroke="#262626" stroke-width="5.8125" stroke-miterlimit="10" stroke-linecap="round" stroke-linejoin="round"/>
<path d="M11.625 46.5H69.75" stroke="#262626" stroke-width="5.8125" stroke-miterlimit="10" stroke-linecap="round" stroke-linejoin="round"/>
<path d="M37.7812 29.0625L29.0625 46.5" stroke="#262626" stroke-width="5.8125" stroke-miterlimit="10" stroke-linecap="round" stroke-linejoin="round"/>
<path d="M75.5625 66.8438H87.1875C88.9313 66.8438 90.0938 65.6813 90.0938 63.9375V58.125C90.0938 51.7312 84.8625 46.5 78.4688 46.5H69.75L58.7063 33.1312C56.3813 30.5156 53.1844 29.0625 49.6969 29.0625H27.6094C23.25 29.0625 19.1813 31.6781 17.1469 35.4562L11.625 46.5H8.71875C5.52187 46.5 2.90625 49.1156 2.90625 52.3125V63.9375C2.90625 65.6813 4.06875 66.8438 5.8125 66.8438H11.625" stroke="#262626" stroke-width="5.8125" stroke-miterlimit="10" stroke-linecap="round" stroke-linejoin="round"/>
<path d="M29.0625 66.8438H58.125" stroke="#262626" stroke-width="5.8125" stroke-miterlimit="10" stroke-linecap="round" stroke-linejoin="round"/>
</svg>
