<svg width="19" height="73" viewBox="0 0 19 73" fill="none" xmlns="http://www.w3.org/2000/svg">
<path d="M16.442 35.867V27.9065C16.442 27.2417 15.9039 26.7036 15.2391 26.7036H10.6092V17.2915H12.951C13.6159 17.2915 14.154 16.7534 14.154 16.0886C14.154 15.4237 13.6159 14.8856 12.951 14.8856H10.6092V12.073H12.951C13.6159 12.073 14.154 11.5349 14.154 10.8701C14.154 10.2052 13.6159 9.66711 12.951 9.66711H10.6092V6.85296H12.951C13.6159 6.85296 14.154 6.31483 14.154 5.64999C14.154 4.98515 13.6159 4.44702 12.951 4.44702H10.6092V2.59848C10.6092 1.93364 10.0711 1.39551 9.40627 1.39551C8.74143 1.39551 8.2033 1.93364 8.2033 2.59848V4.44702H5.86152C5.19668 4.44702 4.65855 4.98515 4.65855 5.64999C4.65855 6.31483 5.19668 6.85296 5.86152 6.85296H8.2033V9.66711H5.86152C5.19668 9.66711 4.65855 10.2052 4.65855 10.8701C4.65855 11.5349 5.19668 12.073 5.86152 12.073H8.2033V14.8856H5.86152C5.19668 14.8856 4.65855 15.4237 4.65855 16.0886C4.65855 16.7534 5.19668 17.2915 5.86152 17.2915H8.2033V26.7036H3.57347C2.90863 26.7036 2.3705 27.2417 2.3705 27.9065V35.867C1.80831 35.968 1.38086 36.4573 1.38086 37.0483V70.5053C1.38086 71.1702 1.91899 71.7083 2.58383 71.7083H16.2287C16.8936 71.7083 17.4317 71.1702 17.4317 70.5053V37.0483C17.4317 36.4573 17.0042 35.968 16.442 35.867ZM4.77644 29.1095H14.0361V35.8453H4.77644V29.1095ZM15.0257 69.3024H3.7868V38.2513H15.0257V69.3024Z" fill="#262626" stroke="#262626" stroke-width="2.2"/>
</svg>
