<svg width="23" height="73" viewBox="0 0 23 73" fill="none" xmlns="http://www.w3.org/2000/svg">
<path d="M20.2481 33.4063H20.1968V24.7995C20.1968 24.1347 19.6587 23.5965 18.9938 23.5965H17.458V12.028C17.458 11.7096 17.3313 11.4032 17.106 11.1771L7.75246 1.81875C7.40841 1.47471 6.89194 1.37045 6.44122 1.55811C5.99131 1.74417 5.69859 2.18285 5.69859 2.66966V23.5965H4.1636C3.49876 23.5965 2.96063 24.1347 2.96063 24.7995V33.4063H2.9061C2.24125 33.4063 1.70312 33.9445 1.70312 34.6093V70.506C1.70312 71.1708 2.24125 71.7089 2.9061 71.7089H20.2489C20.9138 71.7089 21.4519 71.1708 21.4519 70.506V34.6093C21.4511 33.9445 20.913 33.4063 20.2481 33.4063ZM8.10453 5.57523L15.0521 12.526V23.5965H8.10453V5.57523ZM5.36657 26.0025H17.7908V33.4063H5.36657V26.0025ZM19.0451 69.3022H4.10826V35.8115H4.1628H18.993H19.0443V69.3022H19.0451Z" fill="#262626" stroke="#262626" stroke-width="2.2"/>
</svg>
